HIERARCHY
ROOT Hips
{
	OFFSET 62.890800 8.863803 43.568401
	CHANNELS 6 Xposition Yposition Zposition Zrotation Xrotation Yrotation
	JOINT Chest
	{
		OFFSET -0.160400 1.630001 7.806301
		CHANNELS 6 Xposition Yposition Zposition Zrotation Xrotation Yrotation
		JOINT Chest2
		{
			OFFSET 0.000000 0.000000 3.197998
			CHANNELS 6 Xposition Yposition Zposition Zrotation Xrotation Yrotation
			JOINT Neck
			{
				OFFSET 0.000000 0.000001 7.440701
				CHANNELS 6 Xposition Yposition Zposition Zrotation Xrotation Yrotation
				JOINT Head
				{
					OFFSET 0.000000 0.000000 2.173901
					CHANNELS 6 Xposition Yposition Zposition Zrotation Xrotation Yrotation
					End Site
					{
						OFFSET 0.000000 0.000001 10.420303
					}
				}
			}
			JOINT LeftCollar
			{
				OFFSET 2.426399 -1.880099 4.759399
				CHANNELS 6 Xposition Yposition Zposition Zrotation Xrotation Yrotation
				JOINT LeftShoulder
				{
					OFFSET 4.420197 0.000000 0.000000
					CHANNELS 6 Xposition Yposition Zposition Zrotation Xrotation Yrotation
					JOINT LeftElbow
					{
						OFFSET 0.000000 -0.000001 -10.347099
						CHANNELS 6 Xposition Yposition Zposition Zrotation Xrotation Yrotation
						JOINT LeftWrist
						{
							OFFSET 0.000000 -0.000001 -12.496300
							CHANNELS 6 Xposition Yposition Zposition Zrotation Xrotation Yrotation
							End Site
							{
								OFFSET 0.000000 0.000000 -2.173901
							}
						}
					}
				}
			}
			JOINT RightCollar
			{
				OFFSET -2.781502 -1.903799 5.072601
				CHANNELS 6 Xposition Yposition Zposition Zrotation Xrotation Yrotation
				JOINT RightShoulder
				{
					OFFSET -4.012100 0.000000 0.000000
					CHANNELS 6 Xposition Yposition Zposition Zrotation Xrotation Yrotation
					JOINT RightElbow
					{
						OFFSET 0.000000 -0.000001 -10.346600
						CHANNELS 6 Xposition Yposition Zposition Zrotation Xrotation Yrotation
						JOINT RightWrist
						{
							OFFSET 0.000000 -0.000001 -12.562599
							CHANNELS 6 Xposition Yposition Zposition Zrotation Xrotation Yrotation
							End Site
							{
								OFFSET 0.000000 0.000000 -2.173901
							}
						}
					}
				}
			}
		}
	}
	JOINT LeftHip
	{
		OFFSET 2.047997 -0.047200 -2.693199
		CHANNELS 6 Xposition Yposition Zposition Zrotation Xrotation Yrotation
		JOINT LeftKnee
		{
			OFFSET 0.000000 -0.000001 -18.824400
			CHANNELS 6 Xposition Yposition Zposition Zrotation Xrotation Yrotation
			JOINT LeftAnkle
			{
				OFFSET 0.000000 -0.000002 -19.078199
				CHANNELS 6 Xposition Yposition Zposition Zrotation Xrotation Yrotation
				End Site
				{
					OFFSET 0.000000 -9.342100 0.000001
				}
			}
		}
	}
	JOINT RightHip
	{
		OFFSET -2.129898 -0.022300 -2.538300
		CHANNELS 6 Xposition Yposition Zposition Zrotation Xrotation Yrotation
		JOINT RightKnee
		{
			OFFSET 0.000000 -0.000001 -18.644600
			CHANNELS 6 Xposition Yposition Zposition Zrotation Xrotation Yrotation
			JOINT RightAnkle
			{
				OFFSET 0.000000 -0.000002 -18.801399
				CHANNELS 6 Xposition Yposition Zposition Zrotation Xrotation Yrotation
				End Site
				{
					OFFSET 0.000000 -8.914600 0.000001
				}
			}
		}
	}
}
MOTION
Frames: 6
Frame Time: 0.041667
-10.582024 -48.084488 44.950954 -351.915006 5.718204 10.222754 -0.160402 1.630004 7.806307 -9.695944 -1.855168 -3.329565 0.000007 -0.000001 3.197995 9.439765 -0.167986 1.657150 0.000001 -0.000002 7.440698 49.580077 -13.880530 -8.968380 -0.000001 0.000003 2.173908 6.902899 -3.222833 8.013348 2.426402 -1.880101 4.759398 -178.315093 178.503893 -187.033693 4.420190 -0.000005 -0.000001 -10.487187 -3.407664 -103.094022 -0.000006 0.000001 -10.347103 485.680600 -73.551486 118.871410 0.000002 0.000004 -12.496300 36.447450 145.296183 159.779408 -2.781506 -1.903800 5.072598 -187.385174 -177.494705 194.729390 -4.012098 -0.000000 0.000010 0.626291 -15.777290 467.314440 0.000003 0.000005 -10.346592 -49.999560 -7.314952 -5.210403 -0.000002 -0.000004 -12.562594 1225.111142 -171.659948 194.441757 2.047992 -0.047195 -2.693195 12.857747 -13.835556 -23.737148 -0.000002 -0.000001 -18.824400 212.407818 173.188995 -179.496757 -0.000001 -0.000003 -19.078201 -38.625208 26.926658 6.784980 -2.129899 -0.022297 -2.538297 -351.212371 2.935395 15.849632 -0.000007 0.000000 -18.644598 126.743340 169.287195 180.266574 -0.000004 0.000003 -18.801399 35.714021 63.848431 -21.170364
-10.617317 -48.146889 44.943752 -351.921153 5.653845 10.334889 -0.160402 1.630003 7.806306 -9.716788 -1.845657 -3.244325 -0.000000 -0.000001 3.198003 9.554883 -0.174934 1.668139 0.000002 -0.000001 7.440701 49.688202 -13.981644 -8.960022 -0.000000 -0.000001 2.173907 6.807594 -3.378924 7.956352 2.426400 -1.880096 4.759398 -178.327087 178.557729 -186.863471 4.420191 -0.000001 0.000002 -10.393634 -3.253646 -103.088462 0.000002 0.000001 -10.347090 484.861578 -74.056838 117.617743 -0.000006 -0.000002 -12.496299 36.516319 145.440095 159.687159 -2.781500 -1.903798 5.072607 -187.212070 -177.677536 194.916482 -4.012095 -0.000003 0.000002 0.071095 -15.300431 466.936812 -0.000007 0.000005 -10.346600 -50.264602 -7.363954 -5.080184 -0.000002 -0.000006 -12.562591 1224.977270 -171.583108 194.221511 2.047997 -0.047197 -2.693201 12.955703 -13.866079 -23.860076 0.000008 0.000004 -18.824400 213.172103 173.264523 -179.578022 -0.000003 -0.000003 -19.078201 -39.433663 27.178921 6.984530 -2.129898 -0.022293 -2.538301 -350.979680 3.133929 15.665430 -0.000008 0.000007 -18.644600 126.518244 169.305349 180.211727 -0.000002 0.000007 -18.801399 35.483564 63.873183 -20.889471
-10.648026 -48.205090 44.937153 -351.846895 5.651668 10.400635 -0.160398 1.629994 7.806304 -9.824745 -1.950641 -3.190656 0.000002 -0.000004 3.197999 9.642531 -0.190879 1.664645 -0.000001 0.000008 7.440692 49.744572 -13.916434 -8.960444 -0.000006 0.000004 2.173900 6.793368 -3.624136 7.868717 2.426400 -1.880094 4.759395 -178.166946 178.510860 -186.796071 4.420198 0.000005 0.000002 -10.489670 -3.163917 -102.981419 -0.000005 -0.000002 -10.347099 482.477350 -74.499298 114.961919 -0.000001 -0.000002 -12.496301 36.621514 145.334746 159.384281 -2.781501 -1.903798 5.072596 -186.660109 -178.390840 195.074260 -4.012103 -0.000002 0.000012 -0.478851 -15.456646 466.806328 -0.000002 0.000010 -10.346596 -50.559219 -7.056876 -4.673631 0.000000 -0.000015 -12.562593 1225.357138 -171.534655 194.001784 2.048003 -0.047201 -2.693191 12.399583 -13.508863 -24.015503 -0.000000 -0.000001 -18.824400 213.410873 173.468719 -179.562764 0.000000 0.000001 -19.078199 -38.861335 27.325096 6.745941 -2.129892 -0.022305 -2.538298 -350.802641 3.314266 15.504010 -0.000004 -0.000002 -18.644596 126.143144 169.402557 180.164216 -0.000002 0.000003 -18.801397 35.408110 63.974345 -20.763125
-10.684616 -48.264389 44.930359 -351.973500 5.549226 10.475302 -0.160400 1.630005 7.806301 -9.724963 -1.934557 -3.011837 0.000010 -0.000001 3.197998 9.708741 -0.260044 1.651546 -0.000006 -0.000003 7.440705 49.870435 -13.991952 -9.054252 -0.000001 -0.000000 2.173898 6.706967 -3.717078 7.828699 2.426404 -1.880099 4.759406 -178.147603 178.526774 -186.542780 4.420192 0.000003 -0.000006 -10.448051 -2.970776 -103.054099 0.000003 -0.000001 -10.347099 480.479547 -74.833363 112.727389 0.000003 0.000000 -12.496300 36.625889 145.315061 159.229536 -2.781502 -1.903800 5.072608 -186.044791 -179.164837 195.024509 -4.012096 0.000001 0.000008 -1.040871 -15.758954 466.842938 -0.000006 0.000005 -10.346602 -50.915751 -6.639937 -4.317801 -0.000001 -0.000008 -12.562588 1225.934262 -171.365020 193.566345 2.047997 -0.047196 -2.693204 11.756615 -12.864912 -24.300186 -0.000000 0.000004 -18.824402 213.501700 173.701013 -179.395055 -0.000001 0.000001 -19.078199 -37.188758 28.566184 2.141259 -2.129897 -0.022294 -2.538306 -350.205546 3.659109 15.307871 0.000002 0.000000 -18.644604 125.636958 169.529352 180.048322 -0.000003 -0.000003 -18.801399 35.198082 64.063124 -20.544553
-10.715019 -48.316498 44.923553 -352.190754 5.384909 10.507461 -0.160405 1.630001 7.806312 -9.516255 -1.840777 -2.787189 0.000004 -0.000002 3.197999 9.817935 -0.339209 1.652763 0.000003 -0.000002 7.440701 49.900822 -14.089235 -9.072482 -0.000011 0.000001 2.173898 6.659710 -3.841367 7.752712 2.426403 -1.880100 4.759405 -178.147084 178.530982 -186.260570 4.420189 0.000000 0.000004 -10.437478 -2.817586 -103.187903 -0.000007 0.000005 -10.347102 478.356724 -75.122054 110.385795 -0.000001 0.000000 -12.496303 36.754686 145.332383 158.889420 -2.781500 -1.903798 5.072608 -185.651017 -179.722850 194.906592 -4.012099 0.000002 0.000001 -1.300611 -15.811931 466.962876 0.000001 0.000003 -10.346595 -50.895400 -6.285294 -3.996327 0.000002 -0.000003 -12.562602 1226.078406 -171.161836 193.407188 2.047998 -0.047199 -2.693197 11.523917 -12.396101 -24.469737 -0.000002 0.000005 -18.824400 213.494979 173.818957 -179.291154 -0.000011 -0.000000 -19.078201 -36.367069 28.761093 2.143061 -2.129905 -0.022300 -2.538297 -349.668830 3.974903 15.191201 -0.000004 -0.000002 -18.644600 125.564354 169.591739 179.938465 0.000003 -0.000003 -18.801395 34.793817 64.086586 -20.435837
-10.735603 -48.364391 44.911354 -352.441969 5.165106 10.423163 -0.160405 1.630006 7.806307 -9.255902 -1.746801 -2.489217 0.000001 -0.000005 3.198002 9.894576 -0.329277 1.660800 -0.000005 -0.000006 7.440699 49.910593 -14.149831 -9.089656 0.000002 0.000003 2.173912 6.668686 -3.957475 7.721344 2.426402 -1.880100 4.759406 -178.104969 178.612193 -186.248645 4.420200 0.000000 -0.000002 -10.469206 -2.695886 -102.975354 0.000004 0.000001 -10.347098 476.402471 -75.625350 108.182635 -0.000005 -0.000000 -12.496307 37.087931 145.346098 158.553484 -2.781502 -1.903800 5.072608 -185.219007 -180.075192 195.064411 -4.012098 0.000002 0.000004 -1.648007 -16.303909 466.773926 0.000006 0.000006 -10.346595 -50.570301 -5.976681 -3.714592 0.000006 0.000003 -12.562597 1226.451717 -171.132288 193.059354 2.047988 -0.047200 -2.693194 10.994115 -11.675842 -24.610220 0.000001 0.000003 -18.824400 214.281203 173.947856 -179.210968 -0.000002 0.000003 -19.078201 -36.096385 28.872306 2.181465 -2.129903 -0.022297 -2.538298 -349.043758 4.384774 15.236287 -0.000004 0.000004 -18.644604 125.401658 169.607353 179.775852 0.000001 0.000004 -18.801399 34.423925 64.092152 -20.365741
